<svg xmlns="http://www.w3.org/2000/svg" viewBox="0 0 580.53 198.055"><path fill="#00de5a" d="M198.055 99.028a99.029 99.029 0 0 1-169.05 70.023 99.028 99.028 0 1 1 169.05-70.023zM115.59 52.485v49.785L80.93 52.485H52.485v93.21H82.44V95.76l34.66 49.81h28.545V52.485ZM557.193 47.312l-27.631 62.96-31.256-62.96h-24.032l44.265 87.35-18.247 40.93h23.337L580.53 47.435Zm-98.278 97.358h-22.84v-9.09a44.68 44.68 0 0 1-30.064 11.077c-27.31 0-48.684-22.353-48.684-50.666 0-28.314 21.35-50.666 48.684-50.666a44.677 44.677 0 0 1 30.064 11.052v-9.065h22.84zm-20.159-48.555c0-18.354-12.81-32.287-29.79-32.287-16.982 0-29.793 13.933-29.793 32.287s12.786 32.287 29.792 32.287 29.791-14.057 29.791-32.287zM244.374 175.59h23.833V136.4a44.38 44.38 0 0 0 29.072 10.257c27.308 0 48.708-22.353 48.708-50.666 0-28.314-21.375-50.666-48.708-50.666a44.453 44.453 0 0 0-30.14 11.052v-9.065H244.3Zm50.074-111.763c16.982 0 29.792 13.933 29.792 32.287s-12.81 32.287-29.792 32.287c-16.98 0-29.79-13.933-29.79-32.287s12.66-32.287 29.79-32.287z"/></svg>